<mxfile host="app.diagrams.net" agent="Mozilla/5.0 (Windows NT 10.0; Win64; x64) AppleWebKit/537.36 (KHTML, like Gecko) Chrome/127.0.0.0 Safari/537.36" version="24.7.6">
  <diagram name="Page-1" id="XBaPcNetwXVkNEH2sR2C">
    <mxGraphModel dx="954" dy="592" grid="1" gridSize="10" guides="1" tooltips="1" connect="1" arrows="1" fold="1" page="1" pageScale="1" pageWidth="850" pageHeight="1100" math="0" shadow="0">
      <root>
        <mxCell id="0" />
        <mxCell id="1" parent="0" />
        <mxCell id="drBuVy9M7_z7px20c_WL-8" value="Mahasiswa" style="whiteSpace=wrap;html=1;align=center;" vertex="1" parent="1">
          <mxGeometry x="210" y="380" width="100" height="40" as="geometry" />
        </mxCell>
        <mxCell id="drBuVy9M7_z7px20c_WL-10" value="jurusan" style="ellipse;whiteSpace=wrap;html=1;align=center;" vertex="1" parent="1">
          <mxGeometry x="40" y="380" width="100" height="40" as="geometry" />
        </mxCell>
        <mxCell id="drBuVy9M7_z7px20c_WL-11" value="alamat" style="ellipse;whiteSpace=wrap;html=1;align=center;" vertex="1" parent="1">
          <mxGeometry x="70" y="450" width="100" height="40" as="geometry" />
        </mxCell>
        <mxCell id="drBuVy9M7_z7px20c_WL-12" value="nama_depan" style="ellipse;whiteSpace=wrap;html=1;align=center;" vertex="1" parent="1">
          <mxGeometry x="110" y="230" width="100" height="40" as="geometry" />
        </mxCell>
        <mxCell id="drBuVy9M7_z7px20c_WL-13" value="nama_tengah" style="ellipse;whiteSpace=wrap;html=1;align=center;" vertex="1" parent="1">
          <mxGeometry x="210" y="180" width="100" height="40" as="geometry" />
        </mxCell>
        <mxCell id="drBuVy9M7_z7px20c_WL-14" value="nama_belakang" style="ellipse;whiteSpace=wrap;html=1;align=center;" vertex="1" parent="1">
          <mxGeometry x="310" y="230" width="100" height="40" as="geometry" />
        </mxCell>
        <mxCell id="drBuVy9M7_z7px20c_WL-15" value="nama" style="ellipse;whiteSpace=wrap;html=1;align=center;" vertex="1" parent="1">
          <mxGeometry x="210" y="290" width="100" height="40" as="geometry" />
        </mxCell>
        <mxCell id="drBuVy9M7_z7px20c_WL-16" value="Mendaftar" style="shape=rhombus;perimeter=rhombusPerimeter;whiteSpace=wrap;html=1;align=center;" vertex="1" parent="1">
          <mxGeometry x="510" y="370" width="120" height="60" as="geometry" />
        </mxCell>
        <mxCell id="drBuVy9M7_z7px20c_WL-18" value="jurusan" style="ellipse;whiteSpace=wrap;html=1;align=center;" vertex="1" parent="1">
          <mxGeometry x="460" y="230" width="100" height="40" as="geometry" />
        </mxCell>
        <mxCell id="drBuVy9M7_z7px20c_WL-19" value="alamat" style="ellipse;whiteSpace=wrap;html=1;align=center;" vertex="1" parent="1">
          <mxGeometry x="420" y="290" width="100" height="40" as="geometry" />
        </mxCell>
        <mxCell id="drBuVy9M7_z7px20c_WL-20" value="nama" style="ellipse;whiteSpace=wrap;html=1;align=center;" vertex="1" parent="1">
          <mxGeometry x="610" y="290" width="100" height="40" as="geometry" />
        </mxCell>
        <mxCell id="drBuVy9M7_z7px20c_WL-21" value="Anggota Perpustakaan" style="whiteSpace=wrap;html=1;align=center;" vertex="1" parent="1">
          <mxGeometry x="830" y="380" width="100" height="40" as="geometry" />
        </mxCell>
        <mxCell id="drBuVy9M7_z7px20c_WL-23" value="nama" style="ellipse;whiteSpace=wrap;html=1;align=center;" vertex="1" parent="1">
          <mxGeometry x="750" y="250" width="100" height="40" as="geometry" />
        </mxCell>
        <mxCell id="drBuVy9M7_z7px20c_WL-25" value="jurusan" style="ellipse;whiteSpace=wrap;html=1;align=center;" vertex="1" parent="1">
          <mxGeometry x="910" y="250" width="100" height="40" as="geometry" />
        </mxCell>
        <mxCell id="drBuVy9M7_z7px20c_WL-26" value="masa_berlaku" style="ellipse;whiteSpace=wrap;html=1;align=center;" vertex="1" parent="1">
          <mxGeometry x="920" y="310" width="100" height="40" as="geometry" />
        </mxCell>
        <mxCell id="drBuVy9M7_z7px20c_WL-27" value="" style="endArrow=none;html=1;rounded=0;" edge="1" parent="1">
          <mxGeometry relative="1" as="geometry">
            <mxPoint x="140" y="400" as="sourcePoint" />
            <mxPoint x="210" y="400" as="targetPoint" />
          </mxGeometry>
        </mxCell>
        <mxCell id="drBuVy9M7_z7px20c_WL-28" value="" style="endArrow=none;html=1;rounded=0;exitX=1;exitY=0.5;exitDx=0;exitDy=0;entryX=0;entryY=0.5;entryDx=0;entryDy=0;" edge="1" parent="1" source="drBuVy9M7_z7px20c_WL-11" target="drBuVy9M7_z7px20c_WL-8">
          <mxGeometry relative="1" as="geometry">
            <mxPoint x="150" y="410" as="sourcePoint" />
            <mxPoint x="220" y="410" as="targetPoint" />
            <Array as="points" />
          </mxGeometry>
        </mxCell>
        <mxCell id="drBuVy9M7_z7px20c_WL-29" value="" style="endArrow=none;html=1;rounded=0;exitX=1;exitY=0.5;exitDx=0;exitDy=0;entryX=0;entryY=0.5;entryDx=0;entryDy=0;" edge="1" parent="1" source="drBuVy9M7_z7px20c_WL-79" target="drBuVy9M7_z7px20c_WL-8">
          <mxGeometry relative="1" as="geometry">
            <mxPoint x="170" y="340" as="sourcePoint" />
            <mxPoint x="470" y="250" as="targetPoint" />
          </mxGeometry>
        </mxCell>
        <mxCell id="drBuVy9M7_z7px20c_WL-30" value="" style="endArrow=none;html=1;rounded=0;exitX=0.5;exitY=1;exitDx=0;exitDy=0;entryX=0.5;entryY=0;entryDx=0;entryDy=0;" edge="1" parent="1" source="drBuVy9M7_z7px20c_WL-15" target="drBuVy9M7_z7px20c_WL-8">
          <mxGeometry relative="1" as="geometry">
            <mxPoint x="310" y="250" as="sourcePoint" />
            <mxPoint x="470" y="250" as="targetPoint" />
          </mxGeometry>
        </mxCell>
        <mxCell id="drBuVy9M7_z7px20c_WL-31" value="" style="endArrow=none;html=1;rounded=0;exitX=0.5;exitY=0;exitDx=0;exitDy=0;entryX=0;entryY=0.5;entryDx=0;entryDy=0;" edge="1" parent="1" source="drBuVy9M7_z7px20c_WL-15" target="drBuVy9M7_z7px20c_WL-14">
          <mxGeometry relative="1" as="geometry">
            <mxPoint x="310" y="250" as="sourcePoint" />
            <mxPoint x="470" y="250" as="targetPoint" />
          </mxGeometry>
        </mxCell>
        <mxCell id="drBuVy9M7_z7px20c_WL-32" value="" style="endArrow=none;html=1;rounded=0;entryX=0.5;entryY=1;entryDx=0;entryDy=0;" edge="1" parent="1" target="drBuVy9M7_z7px20c_WL-13">
          <mxGeometry relative="1" as="geometry">
            <mxPoint x="260" y="290" as="sourcePoint" />
            <mxPoint x="470" y="250" as="targetPoint" />
          </mxGeometry>
        </mxCell>
        <mxCell id="drBuVy9M7_z7px20c_WL-33" value="" style="endArrow=none;html=1;rounded=0;exitX=1;exitY=0.5;exitDx=0;exitDy=0;entryX=0.5;entryY=0;entryDx=0;entryDy=0;" edge="1" parent="1" source="drBuVy9M7_z7px20c_WL-12" target="drBuVy9M7_z7px20c_WL-15">
          <mxGeometry relative="1" as="geometry">
            <mxPoint x="310" y="250" as="sourcePoint" />
            <mxPoint x="470" y="250" as="targetPoint" />
          </mxGeometry>
        </mxCell>
        <mxCell id="drBuVy9M7_z7px20c_WL-34" value="" style="endArrow=none;html=1;rounded=0;exitX=0.5;exitY=0;exitDx=0;exitDy=0;entryX=0.615;entryY=1.026;entryDx=0;entryDy=0;entryPerimeter=0;" edge="1" parent="1" source="drBuVy9M7_z7px20c_WL-16" target="drBuVy9M7_z7px20c_WL-19">
          <mxGeometry relative="1" as="geometry">
            <mxPoint x="310" y="250" as="sourcePoint" />
            <mxPoint x="470" y="250" as="targetPoint" />
          </mxGeometry>
        </mxCell>
        <mxCell id="drBuVy9M7_z7px20c_WL-36" value="" style="endArrow=none;html=1;rounded=0;exitX=0.5;exitY=0;exitDx=0;exitDy=0;entryX=0.5;entryY=1;entryDx=0;entryDy=0;" edge="1" parent="1" source="drBuVy9M7_z7px20c_WL-16" target="drBuVy9M7_z7px20c_WL-18">
          <mxGeometry relative="1" as="geometry">
            <mxPoint x="580" y="380" as="sourcePoint" />
            <mxPoint x="492" y="341" as="targetPoint" />
          </mxGeometry>
        </mxCell>
        <mxCell id="drBuVy9M7_z7px20c_WL-37" value="" style="endArrow=none;html=1;rounded=0;entryX=0.33;entryY=0.925;entryDx=0;entryDy=0;entryPerimeter=0;" edge="1" parent="1" target="drBuVy9M7_z7px20c_WL-80">
          <mxGeometry relative="1" as="geometry">
            <mxPoint x="570" y="370" as="sourcePoint" />
            <mxPoint x="620" y="270" as="targetPoint" />
          </mxGeometry>
        </mxCell>
        <mxCell id="drBuVy9M7_z7px20c_WL-38" value="" style="endArrow=none;html=1;rounded=0;entryX=0.5;entryY=1;entryDx=0;entryDy=0;" edge="1" parent="1" target="drBuVy9M7_z7px20c_WL-20">
          <mxGeometry relative="1" as="geometry">
            <mxPoint x="570" y="370" as="sourcePoint" />
            <mxPoint x="630" y="280" as="targetPoint" />
          </mxGeometry>
        </mxCell>
        <mxCell id="drBuVy9M7_z7px20c_WL-39" value="" style="endArrow=none;html=1;rounded=0;entryX=0;entryY=0.5;entryDx=0;entryDy=0;exitX=1;exitY=0.5;exitDx=0;exitDy=0;" edge="1" parent="1" source="drBuVy9M7_z7px20c_WL-8" target="drBuVy9M7_z7px20c_WL-16">
          <mxGeometry relative="1" as="geometry">
            <mxPoint x="580" y="380" as="sourcePoint" />
            <mxPoint x="670" y="340" as="targetPoint" />
          </mxGeometry>
        </mxCell>
        <mxCell id="drBuVy9M7_z7px20c_WL-85" value="Many" style="edgeLabel;html=1;align=center;verticalAlign=middle;resizable=0;points=[];" vertex="1" connectable="0" parent="drBuVy9M7_z7px20c_WL-39">
          <mxGeometry x="-0.01" y="-2" relative="1" as="geometry">
            <mxPoint as="offset" />
          </mxGeometry>
        </mxCell>
        <mxCell id="drBuVy9M7_z7px20c_WL-40" value="" style="endArrow=none;html=1;rounded=0;entryX=0;entryY=0.5;entryDx=0;entryDy=0;exitX=1;exitY=0.5;exitDx=0;exitDy=0;" edge="1" parent="1" source="drBuVy9M7_z7px20c_WL-16" target="drBuVy9M7_z7px20c_WL-21">
          <mxGeometry relative="1" as="geometry">
            <mxPoint x="320" y="410" as="sourcePoint" />
            <mxPoint x="520" y="410" as="targetPoint" />
          </mxGeometry>
        </mxCell>
        <mxCell id="drBuVy9M7_z7px20c_WL-86" value="Many" style="edgeLabel;html=1;align=center;verticalAlign=middle;resizable=0;points=[];" vertex="1" connectable="0" parent="drBuVy9M7_z7px20c_WL-40">
          <mxGeometry x="-0.04" y="-5" relative="1" as="geometry">
            <mxPoint as="offset" />
          </mxGeometry>
        </mxCell>
        <mxCell id="drBuVy9M7_z7px20c_WL-41" value="" style="endArrow=none;html=1;rounded=0;entryX=0.5;entryY=0;entryDx=0;entryDy=0;exitX=1;exitY=0.5;exitDx=0;exitDy=0;" edge="1" parent="1" source="drBuVy9M7_z7px20c_WL-81" target="drBuVy9M7_z7px20c_WL-21">
          <mxGeometry relative="1" as="geometry">
            <mxPoint x="840" y="330" as="sourcePoint" />
            <mxPoint x="840" y="410" as="targetPoint" />
          </mxGeometry>
        </mxCell>
        <mxCell id="drBuVy9M7_z7px20c_WL-42" value="" style="endArrow=none;html=1;rounded=0;entryX=0;entryY=0.5;entryDx=0;entryDy=0;" edge="1" parent="1" target="drBuVy9M7_z7px20c_WL-26">
          <mxGeometry relative="1" as="geometry">
            <mxPoint x="880" y="380" as="sourcePoint" />
            <mxPoint x="890" y="390" as="targetPoint" />
          </mxGeometry>
        </mxCell>
        <mxCell id="drBuVy9M7_z7px20c_WL-43" value="" style="endArrow=none;html=1;rounded=0;entryX=0.5;entryY=0;entryDx=0;entryDy=0;exitX=1;exitY=1;exitDx=0;exitDy=0;" edge="1" parent="1" source="drBuVy9M7_z7px20c_WL-23" target="drBuVy9M7_z7px20c_WL-21">
          <mxGeometry relative="1" as="geometry">
            <mxPoint x="850" y="340" as="sourcePoint" />
            <mxPoint x="890" y="390" as="targetPoint" />
          </mxGeometry>
        </mxCell>
        <mxCell id="drBuVy9M7_z7px20c_WL-44" value="" style="endArrow=none;html=1;rounded=0;entryX=0.5;entryY=0;entryDx=0;entryDy=0;exitX=0;exitY=1;exitDx=0;exitDy=0;" edge="1" parent="1" source="drBuVy9M7_z7px20c_WL-25" target="drBuVy9M7_z7px20c_WL-21">
          <mxGeometry relative="1" as="geometry">
            <mxPoint x="820" y="280" as="sourcePoint" />
            <mxPoint x="890" y="390" as="targetPoint" />
          </mxGeometry>
        </mxCell>
        <mxCell id="drBuVy9M7_z7px20c_WL-46" value="kode_peminjaman" style="ellipse;whiteSpace=wrap;html=1;align=center;" vertex="1" parent="1">
          <mxGeometry x="660" y="520" width="110" height="40" as="geometry" />
        </mxCell>
        <mxCell id="drBuVy9M7_z7px20c_WL-47" value="Meminjam" style="shape=rhombus;perimeter=rhombusPerimeter;whiteSpace=wrap;html=1;align=center;" vertex="1" parent="1">
          <mxGeometry x="820" y="580" width="120" height="60" as="geometry" />
        </mxCell>
        <mxCell id="drBuVy9M7_z7px20c_WL-48" value="tanggal_kembali" style="ellipse;whiteSpace=wrap;html=1;align=center;" vertex="1" parent="1">
          <mxGeometry x="640" y="590" width="100" height="40" as="geometry" />
        </mxCell>
        <mxCell id="drBuVy9M7_z7px20c_WL-49" value="tanggal_pinjaman" style="ellipse;whiteSpace=wrap;html=1;align=center;" vertex="1" parent="1">
          <mxGeometry x="660" y="660" width="110" height="40" as="geometry" />
        </mxCell>
        <mxCell id="drBuVy9M7_z7px20c_WL-50" value="judul_buku" style="ellipse;whiteSpace=wrap;html=1;align=center;" vertex="1" parent="1">
          <mxGeometry x="1040" y="630" width="100" height="40" as="geometry" />
        </mxCell>
        <mxCell id="drBuVy9M7_z7px20c_WL-53" value="denda" style="ellipse;whiteSpace=wrap;html=1;align=center;" vertex="1" parent="1">
          <mxGeometry x="930" y="680" width="100" height="40" as="geometry" />
        </mxCell>
        <mxCell id="drBuVy9M7_z7px20c_WL-54" value="" style="endArrow=none;html=1;rounded=0;exitX=0;exitY=0.5;exitDx=0;exitDy=0;entryX=1;entryY=1;entryDx=0;entryDy=0;" edge="1" parent="1" source="drBuVy9M7_z7px20c_WL-47" target="drBuVy9M7_z7px20c_WL-46">
          <mxGeometry relative="1" as="geometry">
            <mxPoint x="580" y="380" as="sourcePoint" />
            <mxPoint x="760" y="550" as="targetPoint" />
          </mxGeometry>
        </mxCell>
        <mxCell id="drBuVy9M7_z7px20c_WL-55" value="" style="endArrow=none;html=1;rounded=0;entryX=0.5;entryY=1;entryDx=0;entryDy=0;exitX=0.5;exitY=0;exitDx=0;exitDy=0;" edge="1" parent="1" source="drBuVy9M7_z7px20c_WL-47" target="drBuVy9M7_z7px20c_WL-21">
          <mxGeometry relative="1" as="geometry">
            <mxPoint x="890" y="590" as="sourcePoint" />
            <mxPoint x="830" y="540" as="targetPoint" />
          </mxGeometry>
        </mxCell>
        <mxCell id="drBuVy9M7_z7px20c_WL-87" value="1" style="edgeLabel;html=1;align=center;verticalAlign=middle;resizable=0;points=[];" vertex="1" connectable="0" parent="drBuVy9M7_z7px20c_WL-55">
          <mxGeometry x="0.25" y="1" relative="1" as="geometry">
            <mxPoint as="offset" />
          </mxGeometry>
        </mxCell>
        <mxCell id="drBuVy9M7_z7px20c_WL-56" value="" style="endArrow=none;html=1;rounded=0;entryX=0;entryY=1;entryDx=0;entryDy=0;exitX=1;exitY=0.5;exitDx=0;exitDy=0;" edge="1" parent="1" source="drBuVy9M7_z7px20c_WL-47" target="drBuVy9M7_z7px20c_WL-83">
          <mxGeometry relative="1" as="geometry">
            <mxPoint x="890" y="590" as="sourcePoint" />
            <mxPoint x="990" y="530" as="targetPoint" />
          </mxGeometry>
        </mxCell>
        <mxCell id="drBuVy9M7_z7px20c_WL-58" value="" style="endArrow=none;html=1;rounded=0;entryX=1;entryY=0.5;entryDx=0;entryDy=0;exitX=0;exitY=0.5;exitDx=0;exitDy=0;" edge="1" parent="1" source="drBuVy9M7_z7px20c_WL-47" target="drBuVy9M7_z7px20c_WL-48">
          <mxGeometry relative="1" as="geometry">
            <mxPoint x="820" y="610" as="sourcePoint" />
            <mxPoint x="830" y="540" as="targetPoint" />
          </mxGeometry>
        </mxCell>
        <mxCell id="drBuVy9M7_z7px20c_WL-59" value="" style="endArrow=none;html=1;rounded=0;entryX=1;entryY=0;entryDx=0;entryDy=0;exitX=0;exitY=0.5;exitDx=0;exitDy=0;" edge="1" parent="1" source="drBuVy9M7_z7px20c_WL-47" target="drBuVy9M7_z7px20c_WL-49">
          <mxGeometry relative="1" as="geometry">
            <mxPoint x="830" y="620" as="sourcePoint" />
            <mxPoint x="790" y="610" as="targetPoint" />
          </mxGeometry>
        </mxCell>
        <mxCell id="drBuVy9M7_z7px20c_WL-60" value="" style="endArrow=none;html=1;rounded=0;entryX=0.5;entryY=0;entryDx=0;entryDy=0;exitX=1;exitY=0.5;exitDx=0;exitDy=0;" edge="1" parent="1" source="drBuVy9M7_z7px20c_WL-47" target="drBuVy9M7_z7px20c_WL-53">
          <mxGeometry relative="1" as="geometry">
            <mxPoint x="830" y="620" as="sourcePoint" />
            <mxPoint x="840" y="680" as="targetPoint" />
          </mxGeometry>
        </mxCell>
        <mxCell id="drBuVy9M7_z7px20c_WL-61" value="" style="endArrow=none;html=1;rounded=0;entryX=0;entryY=0.5;entryDx=0;entryDy=0;exitX=1;exitY=0.5;exitDx=0;exitDy=0;" edge="1" parent="1" source="drBuVy9M7_z7px20c_WL-47" target="drBuVy9M7_z7px20c_WL-50">
          <mxGeometry relative="1" as="geometry">
            <mxPoint x="950" y="620" as="sourcePoint" />
            <mxPoint x="970" y="680" as="targetPoint" />
          </mxGeometry>
        </mxCell>
        <mxCell id="drBuVy9M7_z7px20c_WL-62" value="" style="endArrow=none;html=1;rounded=0;entryX=0;entryY=0.5;entryDx=0;entryDy=0;exitX=1;exitY=0.5;exitDx=0;exitDy=0;" edge="1" parent="1" source="drBuVy9M7_z7px20c_WL-47" target="drBuVy9M7_z7px20c_WL-82">
          <mxGeometry relative="1" as="geometry">
            <mxPoint x="950" y="620" as="sourcePoint" />
            <mxPoint x="1040" y="570" as="targetPoint" />
          </mxGeometry>
        </mxCell>
        <mxCell id="drBuVy9M7_z7px20c_WL-63" value="" style="endArrow=none;html=1;rounded=0;exitX=0.5;exitY=1;exitDx=0;exitDy=0;entryX=0.5;entryY=0;entryDx=0;entryDy=0;" edge="1" parent="1" source="drBuVy9M7_z7px20c_WL-47" target="drBuVy9M7_z7px20c_WL-65">
          <mxGeometry relative="1" as="geometry">
            <mxPoint x="890" y="590" as="sourcePoint" />
            <mxPoint x="880" y="830" as="targetPoint" />
          </mxGeometry>
        </mxCell>
        <mxCell id="drBuVy9M7_z7px20c_WL-88" value="Many" style="edgeLabel;html=1;align=center;verticalAlign=middle;resizable=0;points=[];" vertex="1" connectable="0" parent="drBuVy9M7_z7px20c_WL-63">
          <mxGeometry x="-0.5158" relative="1" as="geometry">
            <mxPoint as="offset" />
          </mxGeometry>
        </mxCell>
        <mxCell id="drBuVy9M7_z7px20c_WL-65" value="Buku" style="whiteSpace=wrap;html=1;align=center;" vertex="1" parent="1">
          <mxGeometry x="830" y="830" width="100" height="40" as="geometry" />
        </mxCell>
        <mxCell id="drBuVy9M7_z7px20c_WL-67" value="tahun_terbit" style="ellipse;whiteSpace=wrap;html=1;align=center;" vertex="1" parent="1">
          <mxGeometry x="750" y="980" width="100" height="40" as="geometry" />
        </mxCell>
        <mxCell id="drBuVy9M7_z7px20c_WL-68" value="judul_buku" style="ellipse;whiteSpace=wrap;html=1;align=center;" vertex="1" parent="1">
          <mxGeometry x="670" y="860" width="100" height="40" as="geometry" />
        </mxCell>
        <mxCell id="drBuVy9M7_z7px20c_WL-69" value="penerbit" style="ellipse;whiteSpace=wrap;html=1;align=center;" vertex="1" parent="1">
          <mxGeometry x="910" y="980" width="100" height="40" as="geometry" />
        </mxCell>
        <mxCell id="drBuVy9M7_z7px20c_WL-70" value="jenis_buku" style="ellipse;whiteSpace=wrap;html=1;align=center;" vertex="1" parent="1">
          <mxGeometry x="960" y="920" width="100" height="40" as="geometry" />
        </mxCell>
        <mxCell id="drBuVy9M7_z7px20c_WL-71" value="pengarang" style="ellipse;whiteSpace=wrap;html=1;align=center;" vertex="1" parent="1">
          <mxGeometry x="980" y="860" width="100" height="40" as="geometry" />
        </mxCell>
        <mxCell id="drBuVy9M7_z7px20c_WL-72" value="nomor_buku" style="ellipse;whiteSpace=wrap;html=1;align=center;fontStyle=4;" vertex="1" parent="1">
          <mxGeometry x="710" y="920" width="100" height="40" as="geometry" />
        </mxCell>
        <mxCell id="drBuVy9M7_z7px20c_WL-73" value="" style="endArrow=none;html=1;rounded=0;exitX=0.5;exitY=0;exitDx=0;exitDy=0;entryX=0.5;entryY=1;entryDx=0;entryDy=0;" edge="1" parent="1" source="drBuVy9M7_z7px20c_WL-69" target="drBuVy9M7_z7px20c_WL-65">
          <mxGeometry relative="1" as="geometry">
            <mxPoint x="890" y="650" as="sourcePoint" />
            <mxPoint x="890" y="840" as="targetPoint" />
          </mxGeometry>
        </mxCell>
        <mxCell id="drBuVy9M7_z7px20c_WL-74" value="" style="endArrow=none;html=1;rounded=0;exitX=0;exitY=0.5;exitDx=0;exitDy=0;entryX=0.5;entryY=1;entryDx=0;entryDy=0;" edge="1" parent="1" source="drBuVy9M7_z7px20c_WL-70" target="drBuVy9M7_z7px20c_WL-65">
          <mxGeometry relative="1" as="geometry">
            <mxPoint x="970" y="990" as="sourcePoint" />
            <mxPoint x="890" y="880" as="targetPoint" />
          </mxGeometry>
        </mxCell>
        <mxCell id="drBuVy9M7_z7px20c_WL-75" value="" style="endArrow=none;html=1;rounded=0;exitX=0;exitY=0.5;exitDx=0;exitDy=0;entryX=0.5;entryY=1;entryDx=0;entryDy=0;" edge="1" parent="1" source="drBuVy9M7_z7px20c_WL-71" target="drBuVy9M7_z7px20c_WL-65">
          <mxGeometry relative="1" as="geometry">
            <mxPoint x="970" y="950" as="sourcePoint" />
            <mxPoint x="890" y="880" as="targetPoint" />
          </mxGeometry>
        </mxCell>
        <mxCell id="drBuVy9M7_z7px20c_WL-76" value="" style="endArrow=none;html=1;rounded=0;exitX=0.5;exitY=1;exitDx=0;exitDy=0;entryX=1;entryY=0.5;entryDx=0;entryDy=0;" edge="1" parent="1" source="drBuVy9M7_z7px20c_WL-65" target="drBuVy9M7_z7px20c_WL-68">
          <mxGeometry relative="1" as="geometry">
            <mxPoint x="990" y="890" as="sourcePoint" />
            <mxPoint x="890" y="880" as="targetPoint" />
          </mxGeometry>
        </mxCell>
        <mxCell id="drBuVy9M7_z7px20c_WL-77" value="" style="endArrow=none;html=1;rounded=0;exitX=0.5;exitY=1;exitDx=0;exitDy=0;entryX=1;entryY=0.5;entryDx=0;entryDy=0;" edge="1" parent="1" source="drBuVy9M7_z7px20c_WL-65" target="drBuVy9M7_z7px20c_WL-72">
          <mxGeometry relative="1" as="geometry">
            <mxPoint x="890" y="880" as="sourcePoint" />
            <mxPoint x="780" y="890" as="targetPoint" />
          </mxGeometry>
        </mxCell>
        <mxCell id="drBuVy9M7_z7px20c_WL-78" value="" style="endArrow=none;html=1;rounded=0;exitX=0.5;exitY=1;exitDx=0;exitDy=0;entryX=1;entryY=0.5;entryDx=0;entryDy=0;" edge="1" parent="1" source="drBuVy9M7_z7px20c_WL-65" target="drBuVy9M7_z7px20c_WL-67">
          <mxGeometry relative="1" as="geometry">
            <mxPoint x="890" y="880" as="sourcePoint" />
            <mxPoint x="820" y="950" as="targetPoint" />
          </mxGeometry>
        </mxCell>
        <mxCell id="drBuVy9M7_z7px20c_WL-79" value="nim" style="ellipse;whiteSpace=wrap;html=1;align=center;fontStyle=4;" vertex="1" parent="1">
          <mxGeometry x="70" y="320" width="100" height="40" as="geometry" />
        </mxCell>
        <mxCell id="drBuVy9M7_z7px20c_WL-80" value="nim" style="ellipse;whiteSpace=wrap;html=1;align=center;fontStyle=4;" vertex="1" parent="1">
          <mxGeometry x="590" y="230" width="100" height="40" as="geometry" />
        </mxCell>
        <mxCell id="drBuVy9M7_z7px20c_WL-81" value="nomor_anggota" style="ellipse;whiteSpace=wrap;html=1;align=center;fontStyle=4;" vertex="1" parent="1">
          <mxGeometry x="740" y="310" width="100" height="40" as="geometry" />
        </mxCell>
        <mxCell id="drBuVy9M7_z7px20c_WL-82" value="nomor_buku" style="ellipse;whiteSpace=wrap;html=1;align=center;fontStyle=4;" vertex="1" parent="1">
          <mxGeometry x="1040" y="550" width="100" height="40" as="geometry" />
        </mxCell>
        <mxCell id="drBuVy9M7_z7px20c_WL-83" value="nomor_anggota" style="ellipse;whiteSpace=wrap;html=1;align=center;fontStyle=4;" vertex="1" parent="1">
          <mxGeometry x="980" y="500" width="100" height="40" as="geometry" />
        </mxCell>
        <mxCell id="drBuVy9M7_z7px20c_WL-89" value="nama : feri firmansah" style="text;html=1;align=center;verticalAlign=middle;resizable=0;points=[];autosize=1;strokeColor=none;fillColor=none;" vertex="1" parent="1">
          <mxGeometry x="70" y="58" width="140" height="30" as="geometry" />
        </mxCell>
        <mxCell id="drBuVy9M7_z7px20c_WL-90" value="kelas : XI PPLG 4" style="text;html=1;align=center;verticalAlign=middle;resizable=0;points=[];autosize=1;strokeColor=none;fillColor=none;" vertex="1" parent="1">
          <mxGeometry x="70" y="78" width="120" height="30" as="geometry" />
        </mxCell>
      </root>
    </mxGraphModel>
  </diagram>
</mxfile>
